<?xml version="1.0" encoding="iso-8859-1"?>
<!-- Generator: Adobe Illustrator 19.0.0, SVG Export Plug-In . SVG Version: 6.00 Build 0)  -->
<svg version="1.1" id="Layer_1" xmlns="http://www.w3.org/2000/svg" xmlns:xlink="http://www.w3.org/1999/xlink" x="0px" y="0px"
	 viewBox="0 0 512 512" style="enable-background:new 0 0 512 512;" xml:space="preserve">
<g>
	<g>
		<path d="M503.615,310.751c-4.011-1.972-9.057-4.589-12.498-7.343c-5.193-4.155-10.677-7.665-16.375-10.528
			c18.176-76.001-4.057-155.972-59.645-211.559c-42.433-42.433-98.935-65.802-159.097-65.802
			c-60.162,0-116.663,23.369-159.097,65.802C41.12,137.105,18.939,217.356,37.423,293.568c-5.22,2.733-10.254,6.011-15.04,9.84
			c-3.124,2.499-7.603,5.088-13.693,7.913c-7.515,3.487-10.78,12.406-7.293,19.92s12.405,10.781,19.92,7.293
			c8.416-3.905,14.709-7.622,19.807-11.7c21.644-17.315,49.614-17.315,71.258,0c32.453,25.963,75.709,26.424,108.74,0
			c21.644-17.315,49.614-17.315,71.258,0c32.69,26.152,75.929,26.248,108.74,0c21.644-17.316,49.613-17.315,71.258,0
			c5.678,4.543,12.287,8.029,18.003,10.839c7.434,3.656,16.424,0.592,20.079-6.843C514.113,323.396,511.05,314.406,503.615,310.751z
			 M371.427,310.446c-19.58,9.817-42.165,7.476-60.307-7.038c-16.059-12.846-34.859-19.637-54.37-19.637s-38.311,6.79-54.37,19.637
			c-18.824,15.06-42.431,17.014-62.502,5.879c-31.08-52.461-22.645-121.017,20.665-164.327c52.636-52.636,138.28-52.636,190.916,0
			C395.25,188.751,403.378,257.762,371.427,310.446z M445.95,284.298c-10.581-1.172-21.135-0.378-31.695,2.574
			c17.392-59.638-0.179-121.72-41.583-163.126c-31.117-31.117-72.551-48.253-116.67-48.253c-44.119,0-85.554,17.137-116.67,48.253
			c-41.372,41.371-58.854,103.261-41.709,162.687c-10.346-2.67-20.962-3.336-31.533-1.975
			C50.953,219,70.274,150.376,118.117,102.534c36.767-36.767,85.735-57.016,137.884-57.016s101.117,20.249,137.884,57.016
			C441.663,150.312,461.009,218.893,445.95,284.298z"/>
	</g>
</g>
<g>
	<g>
		<path d="M503.615,385.749c-4.011-1.972-9.057-4.589-12.498-7.342c-32.691-26.153-75.93-26.249-108.74,0
			c-21.645,17.315-49.615,17.314-71.258,0c-16.059-12.847-34.859-19.637-54.37-19.637s-38.311,6.791-54.37,19.637
			c-21.645,17.315-49.615,17.314-71.258,0c-32.691-26.152-75.929-26.249-108.74,0c-3.124,2.499-7.603,5.087-13.692,7.913
			c-7.515,3.486-10.78,12.405-7.293,19.919c3.487,7.515,12.405,10.78,19.92,7.294c8.416-3.905,14.709-7.622,19.807-11.7
			c21.643-17.315,49.613-17.316,71.258,0c32.691,26.153,75.929,26.248,108.74,0c21.643-17.315,49.613-17.316,71.258,0
			c32.691,26.153,75.929,26.248,108.74,0c21.643-17.315,49.614-17.316,71.258,0c5.679,4.543,12.287,8.028,18.003,10.838
			c7.435,3.656,16.424,0.592,20.079-6.842C514.113,398.394,511.05,389.405,503.615,385.749z"/>
	</g>
</g>
<g>
	<g>
		<path d="M503.615,460.748c-4.011-1.972-9.057-4.589-12.498-7.342c-32.691-26.153-75.93-26.249-108.74,0
			c-21.645,17.315-49.615,17.314-71.258,0c-16.059-12.847-34.859-19.637-54.37-19.637s-38.311,6.791-54.37,19.637
			c-21.645,17.315-49.615,17.314-71.258,0c-32.691-26.152-75.929-26.249-108.74,0c-3.124,2.499-7.603,5.087-13.692,7.913
			c-7.515,3.486-10.78,12.405-7.293,19.919c3.487,7.515,12.405,10.781,19.92,7.294c8.416-3.905,14.709-7.622,19.807-11.7
			c21.643-17.315,49.613-17.316,71.258,0c32.691,26.153,75.929,26.248,108.74,0c21.643-17.315,49.613-17.316,71.258,0
			c32.691,26.153,75.929,26.248,108.74,0c21.643-17.315,49.614-17.316,71.258,0c5.679,4.543,12.287,8.028,18.003,10.838
			c7.435,3.656,16.424,0.592,20.079-6.842C514.113,473.393,511.05,464.404,503.615,460.748z"/>
	</g>
</g>
<g>
	<g>
		<path d="M330.247,166.173c-5.859-5.858-15.357-5.858-21.214,0l-53.032,53.032l-53.032-53.032c-5.857-5.858-15.355-5.858-21.213,0
			s-5.858,15.355,0,21.213l63.639,63.639c5.857,5.857,15.355,5.858,21.213,0l63.639-63.639
			C336.104,181.528,336.104,172.031,330.247,166.173z"/>
	</g>
</g>
<g>
</g>
<g>
</g>
<g>
</g>
<g>
</g>
<g>
</g>
<g>
</g>
<g>
</g>
<g>
</g>
<g>
</g>
<g>
</g>
<g>
</g>
<g>
</g>
<g>
</g>
<g>
</g>
<g>
</g>
</svg>
